HIERARCHY
ROOT Hips
{
  OFFSET 5.84602e-005 68.8428 3.50346
  CHANNELS 6 Xposition Yposition Zposition Zrotation Xrotation Yrotation
  JOINT Spine
  {
    OFFSET 0 8.597 -4.6522
    CHANNELS 3 Zrotation Xrotation Yrotation
    JOINT Spine1
    {
      OFFSET 0 7.8454 0.4098
      CHANNELS 3 Zrotation Xrotation Yrotation
      JOINT Spine2
      {
        OFFSET 0 9.7078 -2.1609
        CHANNELS 3 Zrotation Xrotation Yrotation
        JOINT Neck
        {
          OFFSET 0 21.8761 -0.4549
          CHANNELS 3 Zrotation Xrotation Yrotation
          JOINT Head
          {
            OFFSET 0 12.3537 3.3602
            CHANNELS 3 Zrotation Xrotation Yrotation
            End Site
            {
              OFFSET 0.0001 18.9506 0.5657
            }
          }
        }
        JOINT LeftShoulder
        {
          OFFSET 2.2086 21.1115 7.2329
          CHANNELS 3 Zrotation Xrotation Yrotation
          JOINT LeftArm
          {
            OFFSET 13.1193 3.0282 -4.8998
            CHANNELS 3 Zrotation Xrotation Yrotation
            JOINT LeftForeArm
            {
              OFFSET 27.4081 -0.0973053 -0.2375
              CHANNELS 3 Zrotation Xrotation Yrotation
              JOINT LeftHand
              {
                OFFSET 22.8641 0.0662994 -0.1369
                CHANNELS 3 Zrotation Xrotation Yrotation
                JOINT LeftHandIndex1
                {
                  OFFSET 8.8614 0.775009 2.4612
                  CHANNELS 3 Zrotation Xrotation Yrotation
                  JOINT LeftHandIndex2
                  {
                    OFFSET 3.3146 -0.808304 0.5841
                    CHANNELS 3 Zrotation Xrotation Yrotation
                    JOINT LeftHandIndex3
                    {
                      OFFSET 2.2628 -0.552002 0.3989
                      CHANNELS 3 Zrotation Xrotation Yrotation
                      End Site
                      {
                        OFFSET 1.6102 -0.4807 0.2612
                      }
                    }
                  }
                }
                JOINT LeftHandMiddle1
                {
                  OFFSET 8.9937 0.895004 0.2143
                  CHANNELS 3 Zrotation Xrotation Yrotation
                  JOINT LeftHandMiddle2
                  {
                    OFFSET 4.0984 0.0113983 -0.0242
                    CHANNELS 3 Zrotation Xrotation Yrotation
                    JOINT LeftHandMiddle3
                    {
                      OFFSET 2.2716 0.00689697 -0.0138001
                      CHANNELS 3 Zrotation Xrotation Yrotation
                      End Site
                      {
                        OFFSET 2.0404 -0.1441 0.0027
                      }
                    }
                  }
                }
                JOINT LeftHandRing1
                {
                  OFFSET 8.5234 0.597198 -2.0164
                  CHANNELS 3 Zrotation Xrotation Yrotation
                  JOINT LeftHandRing2
                  {
                    OFFSET 3.7188 -0.188293 -0.2328
                    CHANNELS 3 Zrotation Xrotation Yrotation
                    JOINT LeftHandRing3
                    {
                      OFFSET 2.1191 -0.106598 -0.1332
                      CHANNELS 3 Zrotation Xrotation Yrotation
                      End Site
                      {
                        OFFSET 1.8737 -0.2304 -0.0886
                      }
                    }
                  }
                }
                JOINT LeftHandPinky1
                {
                  OFFSET 7.9094 -0.601089 -3.4825
                  CHANNELS 3 Zrotation Xrotation Yrotation
                  JOINT LeftHandPinky2
                  {
                    OFFSET 2.2874 -0.477005 -0.6314
                    CHANNELS 3 Zrotation Xrotation Yrotation
                    JOINT LeftHandPinky3
                    {
                      OFFSET 1.6774 -0.349396 -0.4633
                      CHANNELS 3 Zrotation Xrotation Yrotation
                      End Site
                      {
                        OFFSET 1.4888 -0.4091 -0.3416
                      }
                    }
                  }
                }
                JOINT LeftHandThumb1
                {
                  OFFSET 1.833 -1.3875 1.3896
                  CHANNELS 3 Zrotation Xrotation Yrotation
                  JOINT LeftHandThumb2
                  {
                    OFFSET 3.4129 -1.121 2.5732
                    CHANNELS 3 Zrotation Xrotation Yrotation
                    JOINT LeftHandThumb3
                    {
                      OFFSET 2.2474 -0.804199 1.6192
                      CHANNELS 3 Zrotation Xrotation Yrotation
                      End Site
                      {
                        OFFSET 1.6527 -0.5689 1.1317
                      }
                    }
                  }
                }
              }
            }
          }
        }
        JOINT RightShoulder
        {
          OFFSET -2.2086 21.1115 7.2329
          CHANNELS 3 Zrotation Xrotation Yrotation
          JOINT RightArm
          {
            OFFSET -13.1216 3.0287 -4.9007
            CHANNELS 3 Zrotation Xrotation Yrotation
            JOINT RightForeArm
            {
              OFFSET -27.4081 -0.0973053 -0.2375
              CHANNELS 3 Zrotation Xrotation Yrotation
              JOINT RightHand
              {
                OFFSET -22.8641 0.0664063 -0.1369
                CHANNELS 3 Zrotation Xrotation Yrotation
                JOINT RightHandIndex1
                {
                  OFFSET -8.8614 0.774994 2.4612
                  CHANNELS 3 Zrotation Xrotation Yrotation
                  JOINT RightHandIndex2
                  {
                    OFFSET -3.3146 -0.808304 0.5841
                    CHANNELS 3 Zrotation Xrotation Yrotation
                    JOINT RightHandIndex3
                    {
                      OFFSET -2.2628 -0.552002 0.3989
                      CHANNELS 3 Zrotation Xrotation Yrotation
                      End Site
                      {
                        OFFSET -1.6102 -0.4807 0.2612
                      }
                    }
                  }
                }
                JOINT RightHandMiddle1
                {
                  OFFSET -8.9937 0.894989 0.2143
                  CHANNELS 3 Zrotation Xrotation Yrotation
                  JOINT RightHandMiddle2
                  {
                    OFFSET -4.0984 0.0113983 -0.0242
                    CHANNELS 3 Zrotation Xrotation Yrotation
                    JOINT RightHandMiddle3
                    {
                      OFFSET -2.2716 0.00691223 -0.0138001
                      CHANNELS 3 Zrotation Xrotation Yrotation
                      End Site
                      {
                        OFFSET -2.0404 -0.1441 0.0027
                      }
                    }
                  }
                }
                JOINT RightHandRing1
                {
                  OFFSET -8.5234 0.597198 -2.0164
                  CHANNELS 3 Zrotation Xrotation Yrotation
                  JOINT RightHandRing2
                  {
                    OFFSET -3.7188 -0.188309 -0.2328
                    CHANNELS 3 Zrotation Xrotation Yrotation
                    JOINT RightHandRing3
                    {
                      OFFSET -2.1191 -0.106598 -0.1332
                      CHANNELS 3 Zrotation Xrotation Yrotation
                      End Site
                      {
                        OFFSET -1.8737 -0.2304 -0.0886
                      }
                    }
                  }
                }
                JOINT RightHandPinky1
                {
                  OFFSET -7.9094 -0.601105 -3.4825
                  CHANNELS 3 Zrotation Xrotation Yrotation
                  JOINT RightHandPinky2
                  {
                    OFFSET -2.2874 -0.477005 -0.6314
                    CHANNELS 3 Zrotation Xrotation Yrotation
                    JOINT RightHandPinky3
                    {
                      OFFSET -1.6774 -0.349396 -0.4633
                      CHANNELS 3 Zrotation Xrotation Yrotation
                      End Site
                      {
                        OFFSET -1.4888 -0.4091 -0.3416
                      }
                    }
                  }
                }
                JOINT RightHandThumb1
                {
                  OFFSET -1.833 -1.38751 1.3896
                  CHANNELS 3 Zrotation Xrotation Yrotation
                  JOINT RightHandThumb2
                  {
                    OFFSET -3.41299 -1.12099 2.5732
                    CHANNELS 3 Zrotation Xrotation Yrotation
                    JOINT RightHandThumb3
                    {
                      OFFSET -2.24741 -0.804108 1.6192
                      CHANNELS 3 Zrotation Xrotation Yrotation
                      End Site
                      {
                        OFFSET -1.6527 -0.5689 1.1317
                      }
                    }
                  }
                }
              }
            }
          }
        }
      }
    }
  }
  JOINT RightUpLeg
  {
    OFFSET -9.1966 3.8861 -0.7581
    CHANNELS 3 Zrotation Xrotation Yrotation
    JOINT RightLeg
    {
      OFFSET -0.7359 -41.0265 0
      CHANNELS 3 Zrotation Xrotation Yrotation
      JOINT RightFoot
      {
        OFFSET 0 -40.2855 0
        CHANNELS 3 Zrotation Xrotation Yrotation
        JOINT RightToeBase
        {
          OFFSET 0 -5.6122 11.7359
          CHANNELS 3 Zrotation Xrotation Yrotation
          End Site
          {
            OFFSET 0 0 7.8731
          }
        }
      }
    }
  }
  JOINT LeftUpLeg
  {
    OFFSET 9.1965 3.8864 -0.7581
    CHANNELS 3 Zrotation Xrotation Yrotation
    JOINT LeftLeg
    {
      OFFSET 0.7359 -41.0268 0
      CHANNELS 3 Zrotation Xrotation Yrotation
      JOINT LeftFoot
      {
        OFFSET 0 -40.2855 0
        CHANNELS 3 Zrotation Xrotation Yrotation
        JOINT LeftToeBase
        {
          OFFSET 0 -5.6122 11.7359
          CHANNELS 3 Zrotation Xrotation Yrotation
          End Site
          {
            OFFSET 0 0 7.8731
          }
        }
      }
    }
  }
}
MOTION
Frames:	4
Frame Time:	0.0333333
0.000435279 6.94437 -6.2086 0 85.7025 -0 -0.309991 0.0826785 -0.108324 -0.619824 0.165962 -0.216199 -0.619825 0.165937 -0.216199 24.849 14.5839 -6.65303 19.4399 21.8116 -7.47377 -8.00265 -0.194467 8.45679e-007 -78.9631 -9.43868 -63.5196 49.406 -25.3943 -110.188 -7.00033 7.19967 -1.4473e-005 5.62409e-007 6.25733e-007 -1.14203e-007 1.12482e-006 1.25147e-006 -2.28406e-007 1.12482e-006 1.25147e-006 -2.28406e-007 5.62409e-007 6.25733e-007 -1.14203e-007 -0.0146174 -8.80278e-005 -3.02263e-006 1.05644e-006 5.06122e-007 3.27317e-007 5.62409e-007 6.25733e-007 -1.14203e-007 -0.0187404 -0.00117358 5.96838e-005 1.12479e-006 1.2515e-006 -2.28212e-007 5.62409e-007 6.25733e-007 -1.14203e-007 -0.0122335 -0.00323952 0.000683542 1.1248e-006 1.25148e-006 -2.28303e-007 5.62409e-007 6.25733e-007 -1.14203e-007 1.12482e-006 1.25147e-006 -2.28406e-007 1.12482e-006 1.25147e-006 -2.28406e-007 7.99916 -0.194704 1.61073e-007 78.9592 -9.44351 63.5163 -49.4135 -25.3858 110.161 6.99662 7.19945 4.81253e-006 1.18833e-006 -9.46755e-008 -1.90854e-007 1.82984e-006 4.52154e-007 -2.77152e-007 1.18833e-006 -9.46756e-008 -1.90854e-007 1.18833e-006 -9.46755e-008 -1.90854e-007 0.0150058 -9.01984e-005 2.95935e-006 1.18834e-006 -9.47006e-008 -1.90843e-007 1.18833e-006 -9.46755e-008 -1.90854e-007 0.0189883 -0.00119084 -5.94394e-005 1.18833e-006 -9.47068e-008 -1.90851e-007 1.18833e-006 -9.46755e-008 -1.90854e-007 0.0122862 -0.00325257 -0.000682373 1.18833e-006 -9.46895e-008 -1.90878e-007 1.18833e-006 -9.46755e-008 -1.90854e-007 1.82984e-006 4.52154e-007 -2.77152e-007 1.18833e-006 -9.46756e-008 -1.90854e-007 -118.833 -25.7875 -105.607 176.794 45.1283 177.065 4.66746 16.617 -8.47038 -1.1053e-006 -1.00111e-006 3.35768e-007 118.829 -25.8021 105.608 -176.705 45.1345 -177.101 -4.67502 16.6032 8.46629 -8.57873e-006 -8.56903e-006 5.60557e-006 
0.000440141 6.8902 -6.17638 0 85.2623 -0 -0.310223 0.194002 -0.106512 -0.62009 0.388588 -0.211974 -0.620089 0.388568 -0.211974 24.8486 14.5838 -6.65307 19.4399 21.8116 -7.47378 -8.00287 -0.194331 -5.3812e-005 -78.963 -9.43865 -63.5196 49.406 -25.3943 -110.188 -7.00033 7.19967 1.62115e-005 -1.12504e-006 -1.25129e-006 2.27259e-007 -1.81381e-006 4.99397e-007 2.94243e-007 -5.02187e-007 1.19198e-007 -4.38008e-007 -1.12504e-006 -1.25129e-006 2.27259e-007 -0.0146084 -9.11534e-005 -4.54076e-006 -5.6251e-007 -6.2566e-007 1.1355e-007 -1.12504e-006 -1.25129e-006 2.27259e-007 -0.0187486 -0.00117418 5.52196e-005 -5.62506e-007 -6.25663e-007 1.13533e-007 -1.12504e-006 -1.25129e-006 2.27259e-007 -0.0122733 -0.00324793 0.000677243 -5.62512e-007 -6.25652e-007 1.13578e-007 -1.12504e-006 -1.25129e-006 2.27259e-007 -1.81381e-006 4.99397e-007 2.94243e-007 -5.02187e-007 1.19198e-007 -4.38008e-007 7.99895 -0.19459 -9.11081e-005 78.9592 -9.44348 63.5163 -49.4135 -25.3858 110.161 6.99662 7.19945 7.96811e-008 1.78784e-006 1.13214e-007 4.94935e-007 1.64082e-006 -1.92424e-006 -3.12001e-007 5.3468e-007 1.07678e-006 -6.09509e-006 1.78784e-006 1.13214e-007 4.94935e-007 0.0149944 -9.22689e-005 3.92439e-006 5.32836e-007 1.076e-006 -6.09523e-006 1.78784e-006 1.13214e-007 4.94935e-007 0.0189927 -0.00119196 -5.14862e-005 1.82978e-006 4.5242e-007 -2.77995e-007 1.78784e-006 1.13214e-007 4.94935e-007 0.0122584 -0.00324636 -0.000666764 1.82977e-006 4.52444e-007 -2.78002e-007 1.78784e-006 1.13214e-007 4.94935e-007 1.64082e-006 -1.92424e-006 -3.12001e-007 5.3468e-007 1.07678e-006 -6.09509e-006 -118.374 -26.066 -105.14 176.793 45.128 177.072 4.30615 16.5221 -8.31366 9.69274e-007 -5.69815e-006 2.57999e-006 118.37 -26.0827 105.14 -176.705 45.1349 -177.108 -4.31174 16.492 8.30751 6.68788e-007 -9.42786e-007 1.18838e-006 
0.00044495 6.83629 -6.14377 0 84.822 -0 -0.310541 0.30545 -0.104719 -0.620537 0.611465 -0.207786 -0.620537 0.611446 -0.207786 24.849 14.584 -6.65311 19.4399 21.8116 -7.47377 -8.00273 -0.194377 -1.20768e-005 -78.963 -9.43867 -63.5196 49.406 -25.3943 -110.188 -7.00034 7.19967 -1.63574e-005 1.12527e-006 1.25111e-006 -2.2611e-007 5.62633e-007 6.25556e-007 -1.13055e-007 1.12527e-006 1.25111e-006 -2.2611e-007 1.12527e-006 1.25111e-006 -2.2611e-007 -0.0146229 -8.8033e-005 -5.30236e-006 1.17501e-006 1.99558e-006 -7.73464e-007 1.12527e-006 1.25111e-006 -2.2611e-007 -0.0187564 -0.00117561 5.17519e-005 1.12523e-006 1.25115e-006 -2.25917e-007 1.12527e-006 1.25111e-006 -2.2611e-007 -0.0122748 -0.00324917 0.000685348 1.12525e-006 1.25113e-006 -2.26007e-007 1.12527e-006 1.25111e-006 -2.2611e-007 5.62633e-007 6.25556e-007 -1.13055e-007 1.12527e-006 1.25111e-006 -2.2611e-007 7.99908 -0.194631 -3.661e-005 78.9592 -9.4435 63.5163 -49.4135 -25.3858 110.161 6.99662 7.19945 7.95585e-006 1.18837e-006 -9.42718e-008 -1.91047e-007 2.82952e-006 -2.01823e-006 -5.01375e-007 1.18837e-006 -9.42718e-008 -1.91047e-007 1.18837e-006 -9.42718e-008 -1.91047e-007 0.0149935 -9.18439e-005 2.53988e-006 1.18837e-006 -9.42968e-008 -1.91035e-007 1.18837e-006 -9.42718e-008 -1.91047e-007 0.0189978 -0.00119348 -5.26417e-005 4.2511e-007 5.24815e-008 -3.78161e-006 1.18837e-006 -9.42718e-008 -1.91047e-007 0.0122714 -0.00325045 -0.0006811 1.18837e-006 -9.42856e-008 -1.9107e-007 1.18837e-006 -9.42718e-008 -1.91047e-007 2.82952e-006 -2.01823e-006 -5.01375e-007 1.18837e-006 -9.42718e-008 -1.91047e-007 -117.912 -26.3415 -104.668 176.794 45.1277 177.079 3.94524 16.4261 -8.1577 -3.48545e-006 -1.36825e-006 -6.6484e-006 117.908 -26.3603 104.668 -176.705 45.1353 -177.115 -3.94892 16.3798 8.14953 -1.18346e-006 5.2012e-006 -1.69864e-006 
0.000449744 6.78262 -6.11077 0 84.3815 -0 -0.310835 0.416934 -0.102908 -0.620946 0.834428 -0.203561 -0.620946 0.83443 -0.203561 24.8487 14.5839 -6.65308 19.4399 21.8116 -7.47377 -8.00279 -0.194284 -2.16113e-005 -78.963 -9.43868 -63.5196 49.406 -25.3943 -110.188 -7.00033 7.19967 -2.63323e-005 -1.12549e-006 -1.25093e-006 2.24959e-007 -1.12549e-006 -1.25093e-006 2.24959e-007 -1.12549e-006 -1.25093e-006 2.24959e-007 -1.12549e-006 -1.25093e-006 2.24959e-007 -0.0146095 -9.02545e-005 -1.17044e-005 -1.12547e-006 -1.25096e-006 2.248e-007 -1.12549e-006 -1.25093e-006 2.24959e-007 -0.0187592 -0.00117811 5.20743e-005 -1.12546e-006 -1.25097e-006 2.24766e-007 -1.12549e-006 -1.25093e-006 2.24959e-007 -0.0122629 -0.00324911 0.000671025 -1.12547e-006 -1.25094e-006 2.24856e-007 -1.12549e-006 -1.25093e-006 2.24959e-007 -1.12549e-006 -1.25093e-006 2.24959e-007 -1.12549e-006 -1.25093e-006 2.24959e-007 7.99902 -0.194529 -7.15483e-005 78.9592 -9.44349 63.5163 -49.4135 -25.3858 110.161 6.99662 7.19945 -2.14732e-006 1.09432e-006 -1.28246e-006 -2.05768e-007 1.92573e-016 1.26881e-015 4.77083e-015 3.26469e-006 -8.523e-007 9.21306e-006 1.09432e-006 -1.28246e-006 -2.05768e-007 0.0150017 -9.17053e-005 4.95684e-006 3.26459e-006 -8.51093e-007 9.21317e-006 1.09432e-006 -1.28246e-006 -2.05768e-007 0.0189956 -0.00119099 -6.67774e-005 3.26465e-006 -8.50762e-007 9.21316e-006 1.09432e-006 -1.28246e-006 -2.05768e-007 0.0122952 -0.00325344 -0.000682873 3.26486e-006 -8.51268e-007 9.21306e-006 1.09432e-006 -1.28246e-006 -2.05768e-007 1.92573e-016 1.26881e-015 4.77083e-015 3.26469e-006 -8.523e-007 9.21306e-006 -117.447 -26.6138 -104.193 176.794 45.1274 177.085 3.58468 16.3292 -8.00244 -2.30276e-006 3.85225e-006 -4.93553e-006 117.442 -26.6346 104.192 -176.705 45.1357 -177.122 -3.58652 16.2666 7.99237 -1.09805e-005 -8.20188e-006 -1.30938e-006 
